<?xml version="1.0" encoding="UTF-8" standalone="no"?>
<!DOCTYPE svg PUBLIC "-//W3C//DTD SVG 1.1//EN"
 "http://www.w3.org/Graphics/SVG/1.1/DTD/svg11.dtd">
<!-- Generated by graphviz version 2.26.3 (20100126.1600)
 -->
<!-- Title: OauthProviderDemo Pages: 1 -->
<svg width="386pt" height="159pt"
 viewBox="0.00 0.00 385.60 158.60" xmlns="http://www.w3.org/2000/svg" xmlns:xlink="http://www.w3.org/1999/xlink">
<g id="graph1" class="graph" transform="scale(1 1) rotate(0) translate(28.8 129.8)">
<title>OauthProviderDemo</title>
<polygon fill="white" stroke="white" points="-28.8,29.8 -28.8,-129.8 357.8,-129.8 357.8,29.8 -28.8,29.8"/>
<!-- m_AccessGrant -->
<g id="node1" class="node"><title>m_AccessGrant</title>
<polyline fill="none" stroke="black" points="194.5,-65 315.5,-65 "/>
<path fill="none" stroke="black" d="M315.5,-65C321.5,-65 327.5,-71 327.5,-77"/>
<polyline fill="none" stroke="black" points="327.5,-77 327.5,-89 "/>
<path fill="none" stroke="black" d="M327.5,-89C327.5,-95 321.5,-101 315.5,-101"/>
<polyline fill="none" stroke="black" points="315.5,-101 194.5,-101 "/>
<path fill="none" stroke="black" d="M194.5,-101C188.5,-101 182.5,-95 182.5,-89"/>
<polyline fill="none" stroke="black" points="182.5,-89 182.5,-77 "/>
<path fill="none" stroke="black" d="M182.5,-77C182.5,-71 188.5,-65 194.5,-65"/>
<text text-anchor="start" x="222.5" y="-79.9333" font-family="Arial Bold" font-size="11.00">AccessGrant</text>
</g>
<!-- m_Authentication -->
<g id="node2" class="node"><title>m_Authentication</title>
<polyline fill="none" stroke="black" points="194.5,-0 315.5,-0 "/>
<path fill="none" stroke="black" d="M315.5,-0C321.5,-0 327.5,-6 327.5,-12"/>
<polyline fill="none" stroke="black" points="327.5,-12 327.5,-24 "/>
<path fill="none" stroke="black" d="M327.5,-24C327.5,-30 321.5,-36 315.5,-36"/>
<polyline fill="none" stroke="black" points="315.5,-36 194.5,-36 "/>
<path fill="none" stroke="black" d="M194.5,-36C188.5,-36 182.5,-30 182.5,-24"/>
<polyline fill="none" stroke="black" points="182.5,-24 182.5,-12 "/>
<path fill="none" stroke="black" d="M182.5,-12C182.5,-6 188.5,-0 194.5,-0"/>
<text text-anchor="start" x="219" y="-14.9333" font-family="Arial Bold" font-size="11.00">Authentication</text>
</g>
<!-- m_Client -->
<g id="node3" class="node"><title>m_Client</title>
<polyline fill="none" stroke="black" points="12.5,-65 133.5,-65 "/>
<path fill="none" stroke="black" d="M133.5,-65C139.5,-65 145.5,-71 145.5,-77"/>
<polyline fill="none" stroke="black" points="145.5,-77 145.5,-89 "/>
<path fill="none" stroke="black" d="M145.5,-89C145.5,-95 139.5,-101 133.5,-101"/>
<polyline fill="none" stroke="black" points="133.5,-101 12.5,-101 "/>
<path fill="none" stroke="black" d="M12.5,-101C6.5,-101 0.5,-95 0.5,-89"/>
<polyline fill="none" stroke="black" points="0.5,-89 0.5,-77 "/>
<path fill="none" stroke="black" d="M0.5,-77C0.5,-71 6.5,-65 12.5,-65"/>
<text text-anchor="start" x="57.5" y="-79.9333" font-family="Arial Bold" font-size="11.00">Client</text>
</g>
<!-- m_Client&#45;&gt;m_AccessGrant -->
<g id="edge6" class="edge"><title>m_Client&#45;&gt;m_AccessGrant</title>
<path fill="none" stroke="black" d="M150.55,-83C157.483,-83 164.523,-83 171.503,-83"/>
<ellipse fill="none" stroke="black" cx="148.116" cy="-83" rx="2.4" ry="2.4"/>
<ellipse fill="none" stroke="black" cx="180" cy="-83" rx="2.4" ry="2.4"/>
<polygon fill="black" stroke="black" points="171.6,-85.1001 177.6,-83 171.6,-80.9001 171.6,-85.1001"/>
</g>
<!-- m_User -->
<g id="node4" class="node"><title>m_User</title>
<polyline fill="none" stroke="black" points="12.5,-0 133.5,-0 "/>
<path fill="none" stroke="black" d="M133.5,-0C139.5,-0 145.5,-6 145.5,-12"/>
<polyline fill="none" stroke="black" points="145.5,-12 145.5,-24 "/>
<path fill="none" stroke="black" d="M145.5,-24C145.5,-30 139.5,-36 133.5,-36"/>
<polyline fill="none" stroke="black" points="133.5,-36 12.5,-36 "/>
<path fill="none" stroke="black" d="M12.5,-36C6.5,-36 0.5,-30 0.5,-24"/>
<polyline fill="none" stroke="black" points="0.5,-24 0.5,-12 "/>
<path fill="none" stroke="black" d="M0.5,-12C0.5,-6 6.5,-0 12.5,-0"/>
<text text-anchor="start" x="60" y="-14.9333" font-family="Arial Bold" font-size="11.00">User</text>
</g>
<!-- m_User&#45;&gt;m_AccessGrant -->
<g id="edge4" class="edge"><title>m_User&#45;&gt;m_AccessGrant</title>
<path fill="none" stroke="black" d="M128.488,-37.8173C149.316,-45.2555 173.086,-53.745 194.357,-61.3418"/>
<ellipse fill="none" stroke="black" cx="125.957" cy="-36.9134" rx="2.40001" ry="2.40001"/>
<ellipse fill="none" stroke="black" cx="202.315" cy="-64.1838" rx="2.40001" ry="2.40001"/>
<polygon fill="black" stroke="black" points="193.698,-63.3361 200.054,-63.3765 195.11,-59.3808 193.698,-63.3361"/>
</g>
<!-- m_User&#45;&gt;m_Authentication -->
<g id="edge2" class="edge"><title>m_User&#45;&gt;m_Authentication</title>
<path fill="none" stroke="black" d="M150.55,-18C157.483,-18 164.523,-18 171.503,-18"/>
<ellipse fill="none" stroke="black" cx="148.116" cy="-18" rx="2.4" ry="2.4"/>
<ellipse fill="none" stroke="black" cx="180" cy="-18" rx="2.4" ry="2.4"/>
<polygon fill="black" stroke="black" points="171.6,-20.1001 177.6,-18 171.6,-15.9001 171.6,-20.1001"/>
</g>
</g>
</svg>
